<svg xmlns="http://www.w3.org/2000/svg" viewBox="0 0 40.5 40.5"><path d="M26.32 18.23l2.35-2.35h3.72l-6.27-7.7h-11.6l-6.39 7.76h3.78l2.61 2.41v2.8l-6 11.15h23.87l-6-11.09L26.32 18.23z M14.48 15.02h-1.57l4.79-5.67L14.48 15.02z M17.71 15.02l2.35-3.52l2.25 3.52H17.71z M22.3 9.35l5.28 5.67h-1.57L22.3 9.35M26.32 18.23l2.35-2.35h3.72l-6.27-7.7h-11.6l-6.39 7.76h3.78l2.61 2.41v2.8l-6 11.15h23.87l-6-11.09L26.32 18.23z M14.48 15.02h-1.57l4.79-5.67L14.48 15.02z M17.71 15.02l2.35-3.52l2.25 3.52H17.71z M22.3 9.35l5.28 5.67h-1.57L22.3 9.35z" fill="#ECC" stroke="#000" stroke-width=".5" style="filter: drop-shadow(0 0 1px rgba(0,0,0,.8))"></path></svg>