<?xml version="1.0" encoding="utf-8"?>
<!-- Generator: Adobe Illustrator 25.2.1, SVG Export Plug-In . SVG Version: 6.00 Build 0)  -->
<svg version="1.1"
	 id="svg3001" sodipodi:docname="angle_left_font_awesome.svg" xmlns:cc="http://creativecommons.org/ns#" xmlns:dc="http://purl.org/dc/elements/1.1/" xmlns:inkscape="http://www.inkscape.org/namespaces/inkscape" xmlns:rdf="http://www.w3.org/1999/02/22-rdf-syntax-ns#" xmlns:sodipodi="http://sodipodi.sourceforge.net/DTD/sodipodi-0.dtd" xmlns:svg="http://www.w3.org/2000/svg"
	 xmlns="http://www.w3.org/2000/svg" xmlns:xlink="http://www.w3.org/1999/xlink" x="0px" y="0px" viewBox="0 0 4000 4000"
	 style="enable-background:new 0 0 4000 4000;" xml:space="preserve">
<style type="text/css">
	.st0{fill:#FFFFFF;}
</style>
<g id="g3003" transform="matrix(1,0,0,-1,516.33898,1194.3051)">
	<path id="path3005" inkscape:connector-curvature="0" class="st0" d="M941.7-1520.5c0,14.9,6.9,28.1,20.6,39.5l810.6,675.3
		L962.3-130.4c-13.8,11.5-20.6,24.6-20.6,39.5s6.9,28.1,20.6,39.5l103.1,85.9c13.8,11.5,29.6,17.2,47.4,17.2
		c17.9,0,33.7-5.7,47.4-17.2l961.2-800.7c13.8-11.5,20.6-24.6,20.6-39.5s-6.9-28.1-20.6-39.5l-961.2-800.7
		c-13.8-11.5-29.6-17.2-47.4-17.2c-17.9,0-33.7,5.7-47.4,17.2L962.3-1560C948.6-1548.5,941.7-1535.4,941.7-1520.5z"/>
</g>
</svg>
